<svg width="180" height="180" viewBox="0 0 180 180" fill="none" xmlns="http://www.w3.org/2000/svg">
  <rect width="180" height="180" rx="40" fill="#2b5c9e"/>
  
  {/* Scanning Frame Corners */}
  <path d="M40 70V50C40 44.4772 44.4772 40 50 40H70" stroke="white" stroke-width="12" stroke-linecap="round"/>
  <path d="M110 40H130C135.523 40 140 44.4772 140 50V70" stroke="white" stroke-width="12" stroke-linecap="round"/>
  <path d="M140 110V130C140 135.523 135.523 140 130 140H110" stroke="white" stroke-width="12" stroke-linecap="round"/>
  <path d="M70 140H50C44.4772 140 40 135.523 40 130V110" stroke="white" stroke-width="12" stroke-linecap="round"/>
  
  {/* Human Profile */}
  <circle cx="90" cy="75" r="22" fill="white"/>
  <path d="M55 125C55 108.431 68.4315 95 85 95H95C111.569 95 125 108.431 125 125V128H55V125Z" fill="white"/>
  
  {/* Success Checkmark Badge */}
  <circle cx="130" cy="130" r="30" fill="#10b981" stroke="#2b5c9e" stroke-width="8"/>
  <path d="M118 130L126 138L142 122" stroke="white" stroke-width="10" stroke-linecap="round" stroke-linejoin="round"/>
</svg>